# xmcd
#
# Track frame offsets:
#	150
#	10732
#	21977
#	31867
#	44785
#	55435
#	69145
#	80480
#	87855
#	97265
#	114287
#	124947
#	134392
#	144547
#	164687
#
# Disc length: 2321 seconds
#
# Revision: 2
# Processed by: cddbd v1.5.1PL0 Copyright (c) Steve Scherf et al.
# Submitted via: audiograbber 1.83.01
#
DISCID=d0090f0f
DTITLE=Various Artist - The Banjo Hall of Fame - Vol.1
DYEAR=1998
DGENRE=Bluegrass
TTITLE0=Wynn Osborne - Bluegrass Breakdown
TTITLE1=Eddie Adcock - Limehouse Blues
TTITLE2=Don Reno and Arthur Smith - Twelfth Street Rag
TTITLE3=Osborne Brothers - Unclouded Day
TTITLE4=Nashville Superpickers - I Wanna Hold Your Hand
TTITLE5=Masters - Thomas Jefferson Breakdown
TTITLE6=Bobby Smith and Josh Graves - Gretna Green
TTITLE7=Joe Maphis and Zen Crook - Cripple Creek
TTITLE8=Pinnacle Boys - Maryville Breakdown
TTITLE9=Eddie Adcock - B and N Breakdown
TTITLE10=Arthur Smith and Benny Martin - Down In Dixie
TTITLE11=Wynn Osborne - Tequila
TTITLE12=Lester Flatt - Shuckin' The Corn
TTITLE13=Osborne Brothers - Bluegrass Concerto
TTITLE14=Arthur Smith and Jeff Whittington - Dueling Banjos
EXTD=
EXTT0=
EXTT1=
EXTT2=
EXTT3=
EXTT4=
EXTT5=
EXTT6=
EXTT7=
EXTT8=
EXTT9=
EXTT10=
EXTT11=
EXTT12=
EXTT13=
EXTT14=
PLAYORDER=
